<svg xmlns="http://www.w3.org/2000/svg" xmlns:xlink="http://www.w3.org/1999/xlink" width="500" zoomAndPan="magnify" viewBox="0 0 375 374.999991" height="500" preserveAspectRatio="xMidYMid meet" version="1.2"><defs><clipPath id="70e1c405ef"><path d="M 59.605469 59.605469 L 315.355469 59.605469 L 315.355469 315.355469 L 59.605469 315.355469 Z M 59.605469 59.605469 "/></clipPath><clipPath id="56fb24d131"><path d="M 187.480469 59.605469 C 116.859375 59.605469 59.605469 116.859375 59.605469 187.480469 C 59.605469 258.105469 116.859375 315.355469 187.480469 315.355469 C 258.105469 315.355469 315.355469 258.105469 315.355469 187.480469 C 315.355469 116.859375 258.105469 59.605469 187.480469 59.605469 Z M 187.480469 59.605469 "/></clipPath><clipPath id="7330118d51"><path d="M 93.539062 93.539062 L 281.789062 93.539062 L 281.789062 281.789062 L 93.539062 281.789062 Z M 93.539062 93.539062 "/></clipPath><clipPath id="9b15a5bdfc"><path d="M 66.15625 173.441406 L 93.90625 173.441406 L 93.90625 201.191406 L 66.15625 201.191406 Z M 66.15625 173.441406 "/></clipPath><clipPath id="61477b3308"><path d="M 288.011719 173.441406 L 315.761719 173.441406 L 315.761719 201.191406 L 288.011719 201.191406 Z M 288.011719 173.441406 "/></clipPath></defs><g id="9302ebc3ec"><rect x="0" width="375" y="0" height="374.999991" style="fill:#ffffff;fill-opacity:1;stroke:none;"/><rect x="0" width="375" y="0" height="374.999991" style="fill:#ffffff;fill-opacity:1;stroke:none;"/><g clip-rule="nonzero" clip-path="url(#70e1c405ef)"><g clip-rule="nonzero" clip-path="url(#56fb24d131)"><path style="fill:none;stroke-width:4;stroke-linecap:butt;stroke-linejoin:miter;stroke:#050a30;stroke-opacity:1;stroke-miterlimit:4;" d="M 170.522533 -0.000903772 C 76.348128 -0.000903772 -0.000909773 76.348134 -0.000909773 170.522539 C -0.000909773 264.702153 76.348128 341.045981 170.522533 341.045981 C 264.702147 341.045981 341.045975 264.702153 341.045975 170.522539 C 341.045975 76.348134 264.702147 -0.000903772 170.522533 -0.000903772 Z M 170.522533 -0.000903772 " transform="matrix(0.749897,0,0,0.749897,59.606151,59.606146)"/></g></g><g clip-rule="nonzero" clip-path="url(#7330118d51)"><path style=" stroke:none;fill-rule:nonzero;fill:#050a30;fill-opacity:1;" d="M 250.378906 217.984375 C 249.234375 221.835938 245.8125 224.558594 241.800781 224.832031 C 218.773438 226.429688 199.898438 236.777344 191.777344 241.945312 L 191.777344 186.503906 C 191.777344 186.046875 191.703125 185.605469 191.570312 185.191406 C 219.726562 157.945312 267.460938 160.445312 267.460938 160.445312 Z M 190.648438 242.082031 C 190.648438 243.828125 189.230469 245.246094 187.484375 245.246094 C 185.734375 245.246094 184.320312 243.828125 184.320312 242.082031 L 184.320312 186.503906 C 184.320312 184.753906 185.734375 183.339844 187.484375 183.339844 C 189.230469 183.339844 190.648438 184.753906 190.648438 186.503906 Z M 183.191406 186.503906 L 183.191406 241.945312 C 175.070312 236.777344 156.195312 226.429688 133.167969 224.832031 C 129.15625 224.558594 125.734375 221.835938 124.589844 217.984375 L 107.507812 160.445312 C 107.507812 160.445312 155.238281 157.945312 183.398438 185.191406 C 183.261719 185.605469 183.191406 186.046875 183.191406 186.503906 Z M 185.351562 182.78125 C 185.242188 182.84375 185.140625 182.910156 185.039062 182.980469 C 179.019531 176.71875 161.640625 161.851562 130.160156 159.070312 C 127.242188 158.808594 124.675781 157.03125 123.417969 154.382812 L 121.171875 149.664062 C 121.171875 149.664062 163.832031 154.46875 185.351562 182.78125 Z M 183.644531 176.539062 C 183.644531 176.539062 170.957031 159.492188 142.019531 152.414062 C 138.574219 151.574219 136.054688 148.617188 135.757812 145.078125 C 150.839844 148.796875 171.585938 157.269531 183.644531 176.539062 Z M 181.738281 167.679688 C 182.214844 168.46875 182.375 168.90625 182.375 168.90625 C 182.167969 168.496094 181.957031 168.089844 181.738281 167.679688 C 180.042969 164.882812 174.347656 157.65625 157.660156 149.964844 C 154.871094 148.675781 153.023438 145.945312 152.867188 142.878906 L 152.726562 140.144531 C 162.707031 146.203125 175.238281 155.640625 181.738281 167.679688 Z M 253.796875 149.664062 L 251.550781 154.382812 C 250.289062 157.03125 247.726562 158.808594 244.804688 159.070312 C 213.324219 161.851562 195.945312 176.71875 189.929688 182.980469 C 189.832031 182.910156 189.722656 182.84375 189.617188 182.78125 C 211.136719 154.46875 253.796875 149.664062 253.796875 149.664062 Z M 239.210938 145.078125 C 238.914062 148.617188 236.394531 151.574219 232.949219 152.414062 C 204.007812 159.492188 191.324219 176.539062 191.324219 176.539062 C 203.382812 157.269531 224.128906 148.796875 239.210938 145.078125 Z M 193.230469 167.679688 C 199.726562 155.640625 212.257812 146.203125 222.242188 140.144531 L 222.101562 142.878906 C 221.941406 145.945312 220.09375 148.675781 217.308594 149.964844 C 200.617188 157.65625 194.925781 164.882812 193.230469 167.679688 C 193.011719 168.089844 192.796875 168.496094 192.59375 168.90625 C 192.59375 168.90625 192.753906 168.46875 193.230469 167.679688 Z M 187.484375 93.523438 C 135.589844 93.523438 93.523438 135.589844 93.523438 187.484375 C 93.523438 239.378906 135.589844 281.445312 187.484375 281.445312 C 239.378906 281.445312 281.445312 239.378906 281.445312 187.484375 C 281.445312 135.589844 239.378906 93.523438 187.484375 93.523438 "/></g><g clip-rule="nonzero" clip-path="url(#9b15a5bdfc)"><path style=" stroke:none;fill-rule:nonzero;fill:#050a30;fill-opacity:1;" d="M 93.175781 187.097656 L 89.191406 187.097656 C 82.371094 185.621094 80.851562 184.101562 79.375 177.269531 L 79.375 173.441406 L 78.871094 173.441406 L 78.871094 177.308594 C 77.398438 184.105469 75.875 185.625 69.066406 187.097656 L 66.160156 187.097656 L 66.160156 187.601562 L 69.066406 187.601562 C 75.875 189.078125 77.398438 190.59375 78.871094 197.390625 L 78.871094 201.191406 L 79.375 201.191406 L 79.375 197.433594 C 80.851562 190.601562 82.371094 189.078125 89.191406 187.601562 L 93.175781 187.601562 Z M 93.175781 187.097656 "/></g><g style="fill:#050a30;fill-opacity:1;"><g transform="translate(106.690975, 127.528204)"><path style="stroke:none" d="M 0.703125 -15.109375 C 1.660156 -15.535156 2.585938 -15.703125 3.484375 -15.609375 C 4.378906 -15.523438 5.175781 -15.171875 5.875 -14.546875 C 7.25 -13.316406 7.847656 -11.960938 7.671875 -10.484375 C 7.503906 -9.003906 6.820312 -7.59375 5.625 -6.25 L 1.5625 -1.75 L -11.96875 -13.90625 L -8.390625 -17.875 C -7.097656 -19.3125 -5.789062 -20.175781 -4.46875 -20.46875 C -3.144531 -20.757812 -1.9375 -20.410156 -0.84375 -19.421875 C -0.164062 -18.816406 0.296875 -18.144531 0.546875 -17.40625 C 0.796875 -16.664062 0.847656 -15.898438 0.703125 -15.109375 Z M -4.046875 -11.59375 L -2.578125 -13.21875 C -2.140625 -13.707031 -1.945312 -14.21875 -2 -14.75 C -2.0625 -15.28125 -2.3125 -15.742188 -2.75 -16.140625 C -3.207031 -16.554688 -3.691406 -16.71875 -4.203125 -16.625 C -4.722656 -16.53125 -5.222656 -16.21875 -5.703125 -15.6875 L -7 -14.25 Z M 3.03125 -8.328125 C 3.59375 -8.953125 3.921875 -9.570312 4.015625 -10.1875 C 4.109375 -10.8125 3.90625 -11.347656 3.40625 -11.796875 C 2.445312 -12.648438 1.285156 -12.316406 -0.078125 -10.796875 L -1.46875 -9.265625 L 1.484375 -6.625 Z M 3.03125 -8.328125 "/></g></g><g style="fill:#050a30;fill-opacity:1;"><g transform="translate(129.547687, 105.450509)"><path style="stroke:none" d="M -3.28125 -8.546875 C -4.070312 -9.984375 -4.441406 -11.53125 -4.390625 -13.1875 C -4.347656 -14.84375 -3.90625 -16.382812 -3.0625 -17.8125 C -2.226562 -19.238281 -1.082031 -20.351562 0.375 -21.15625 C 1.832031 -21.957031 3.390625 -22.328125 5.046875 -22.265625 C 6.703125 -22.203125 8.242188 -21.75 9.671875 -20.90625 C 11.109375 -20.0625 12.222656 -18.921875 13.015625 -17.484375 C 13.828125 -16.003906 14.195312 -14.4375 14.125 -12.78125 C 14.0625 -11.132812 13.601562 -9.601562 12.75 -8.1875 C 11.90625 -6.78125 10.753906 -5.675781 9.296875 -4.875 C 7.828125 -4.070312 6.269531 -3.691406 4.625 -3.734375 C 2.988281 -3.785156 1.460938 -4.226562 0.046875 -5.0625 C -1.359375 -5.90625 -2.46875 -7.066406 -3.28125 -8.546875 Z M -0.03125 -10.328125 C 0.476562 -9.398438 1.164062 -8.664062 2.03125 -8.125 C 2.90625 -7.59375 3.847656 -7.304688 4.859375 -7.265625 C 5.867188 -7.222656 6.832031 -7.457031 7.75 -7.96875 C 8.644531 -8.457031 9.332031 -9.128906 9.8125 -9.984375 C 10.300781 -10.847656 10.546875 -11.78125 10.546875 -12.78125 C 10.546875 -13.78125 10.285156 -14.753906 9.765625 -15.703125 C 9.242188 -16.660156 8.550781 -17.40625 7.6875 -17.9375 C 6.832031 -18.476562 5.90625 -18.769531 4.90625 -18.8125 C 3.914062 -18.863281 2.96875 -18.640625 2.0625 -18.140625 C 1.144531 -17.640625 0.441406 -16.957031 -0.046875 -16.09375 C -0.546875 -15.238281 -0.796875 -14.300781 -0.796875 -13.28125 C -0.804688 -12.269531 -0.550781 -11.285156 -0.03125 -10.328125 Z M -0.03125 -10.328125 "/></g></g><g style="fill:#050a30;fill-opacity:1;"><g transform="translate(162.96997, 90.346539)"><path style="stroke:none" d="M -0.0625 -9.140625 C -0.289062 -10.773438 -0.09375 -12.359375 0.53125 -13.890625 C 1.164062 -15.429688 2.125 -16.71875 3.40625 -17.75 C 4.695312 -18.789062 6.164062 -19.425781 7.8125 -19.65625 C 9.46875 -19.894531 11.054688 -19.691406 12.578125 -19.046875 C 14.109375 -18.410156 15.390625 -17.441406 16.421875 -16.140625 C 17.460938 -14.847656 18.097656 -13.382812 18.328125 -11.75 C 18.566406 -10.09375 18.363281 -8.503906 17.71875 -6.984375 C 17.082031 -5.460938 16.117188 -4.1875 14.828125 -3.15625 C 13.546875 -2.132812 12.078125 -1.503906 10.421875 -1.265625 C 8.765625 -1.035156 7.175781 -1.234375 5.65625 -1.859375 C 4.132812 -2.492188 2.859375 -3.453125 1.828125 -4.734375 C 0.804688 -6.015625 0.175781 -7.484375 -0.0625 -9.140625 Z M 3.609375 -9.65625 C 3.765625 -8.613281 4.15625 -7.6875 4.78125 -6.875 C 5.40625 -6.070312 6.179688 -5.472656 7.109375 -5.078125 C 8.035156 -4.691406 9.019531 -4.578125 10.0625 -4.734375 C 11.070312 -4.867188 11.957031 -5.25 12.71875 -5.875 C 13.476562 -6.507812 14.03125 -7.296875 14.375 -8.234375 C 14.726562 -9.171875 14.828125 -10.171875 14.671875 -11.234375 C 14.523438 -12.316406 14.144531 -13.265625 13.53125 -14.078125 C 12.914062 -14.890625 12.148438 -15.492188 11.234375 -15.890625 C 10.316406 -16.285156 9.347656 -16.410156 8.328125 -16.265625 C 7.296875 -16.117188 6.394531 -15.726562 5.625 -15.09375 C 4.863281 -14.457031 4.300781 -13.660156 3.9375 -12.703125 C 3.570312 -11.753906 3.460938 -10.738281 3.609375 -9.65625 Z M 3.609375 -9.65625 "/></g></g><g style="fill:#050a30;fill-opacity:1;"><g transform="translate(199.633498, 88.187864)"><path style="stroke:none" d="M 7.921875 -9.390625 L 8.609375 -9.953125 L 15.75 -15.328125 L 20.3125 -14.390625 L 11.3125 -7.921875 L 16.671875 3.421875 L 12.21875 2.515625 L 8.296875 -6.203125 L 7.25 -5.53125 L 5.859375 1.203125 L 2.296875 0.46875 L 5.953125 -17.34375 L 9.515625 -16.609375 L 8.21875 -10.265625 Z M 7.921875 -9.390625 "/></g></g><g style="fill:#050a30;fill-opacity:1;"><g transform="translate(231.543579, 97.515112)"><path style="stroke:none" d="M 17.296875 -6.046875 C 16.335938 -7.585938 15.347656 -8.648438 14.328125 -9.234375 C 13.648438 -9.617188 13.039062 -9.78125 12.5 -9.71875 C 11.96875 -9.664062 11.550781 -9.367188 11.25 -8.828125 C 10.957031 -8.316406 10.976562 -7.710938 11.3125 -7.015625 C 11.65625 -6.328125 12.191406 -5.554688 12.921875 -4.703125 C 13.503906 -4.003906 13.957031 -3.328125 14.28125 -2.671875 C 14.613281 -2.023438 14.78125 -1.296875 14.78125 -0.484375 C 14.78125 0.328125 14.515625 1.207031 13.984375 2.15625 C 13.523438 2.96875 12.882812 3.601562 12.0625 4.0625 C 11.25 4.53125 10.316406 4.734375 9.265625 4.671875 C 8.222656 4.617188 7.140625 4.269531 6.015625 3.625 C 5.066406 3.09375 4.203125 2.421875 3.421875 1.609375 C 2.648438 0.796875 2.023438 -0.113281 1.546875 -1.125 L 4.296875 -2.78125 C 4.617188 -2.082031 5.054688 -1.398438 5.609375 -0.734375 C 6.171875 -0.078125 6.726562 0.40625 7.28125 0.71875 C 7.945312 1.09375 8.601562 1.28125 9.25 1.28125 C 9.894531 1.28125 10.394531 0.960938 10.75 0.328125 C 11.21875 -0.492188 10.851562 -1.632812 9.65625 -3.09375 C 8.957031 -3.96875 8.398438 -4.738281 7.984375 -5.40625 C 7.566406 -6.082031 7.316406 -6.851562 7.234375 -7.71875 C 7.148438 -8.582031 7.367188 -9.472656 7.890625 -10.390625 C 8.660156 -11.765625 9.726562 -12.613281 11.09375 -12.9375 C 12.457031 -13.257812 13.910156 -13.035156 15.453125 -12.265625 C 16.617188 -11.597656 17.515625 -10.910156 18.140625 -10.203125 C 18.773438 -9.492188 19.332031 -8.6875 19.8125 -7.78125 Z M 17.296875 -6.046875 "/></g></g><g style="fill:#050a30;fill-opacity:1;"><g transform="translate(256.729966, 114.351066)"><path style="stroke:none" d="M 25.203125 0.625 L 11.359375 4.046875 L 7.1875 7.859375 L 4.765625 5.21875 L 8.9375 1.40625 L 13.671875 -11.984375 L 16.65625 -8.71875 L 13.265625 0.03125 L 22.21875 -2.640625 Z M 25.203125 0.625 "/></g></g><g style="fill:#050a30;fill-opacity:1;"><g transform="translate(91.182311, 251.443678)"><path style="stroke:none" d="M 7.90625 2.3125 C 8.03125 2.9375 8.003906 3.507812 7.828125 4.03125 C 7.648438 4.5625 7.328125 4.976562 6.859375 5.28125 C 6.285156 5.644531 5.722656 5.804688 5.171875 5.765625 C 4.628906 5.734375 4.128906 5.546875 3.671875 5.203125 C 3.210938 4.867188 2.816406 4.4375 2.484375 3.90625 L 0.8125 1.28125 L 9.671875 -4.34375 L 11.125 -2.0625 C 11.695312 -1.15625 11.957031 -0.332031 11.90625 0.40625 C 11.851562 1.144531 11.457031 1.75 10.71875 2.21875 C 10.25 2.507812 9.769531 2.660156 9.28125 2.671875 C 8.800781 2.679688 8.34375 2.5625 7.90625 2.3125 Z M 6.546875 -0.6875 L 7.40625 0.65625 C 7.695312 1.113281 8.046875 1.375 8.453125 1.4375 C 8.867188 1.5 9.28125 1.40625 9.6875 1.15625 C 10.132812 0.863281 10.378906 0.507812 10.421875 0.09375 C 10.460938 -0.3125 10.328125 -0.769531 10.015625 -1.28125 L 9.28125 -2.421875 Z M 3.5625 3.15625 C 3.882812 3.664062 4.269531 4.015625 4.71875 4.203125 C 5.164062 4.398438 5.613281 4.351562 6.0625 4.0625 C 6.53125 3.769531 6.757812 3.367188 6.75 2.859375 C 6.738281 2.359375 6.566406 1.851562 6.234375 1.34375 L 5.40625 0.03125 L 2.671875 1.765625 Z M 3.5625 3.15625 "/></g></g><g style="fill:#050a30;fill-opacity:1;"><g transform="translate(97.514467, 261.308804)"><path style="stroke:none" d="M 4.578125 -2.671875 C 5.316406 -3.285156 6.15625 -3.664062 7.09375 -3.8125 C 8.039062 -3.957031 8.960938 -3.867188 9.859375 -3.546875 C 10.765625 -3.234375 11.523438 -2.703125 12.140625 -1.953125 C 12.753906 -1.210938 13.128906 -0.367188 13.265625 0.578125 C 13.410156 1.523438 13.316406 2.445312 12.984375 3.34375 C 12.660156 4.238281 12.128906 4.992188 11.390625 5.609375 C 10.648438 6.222656 9.8125 6.601562 8.875 6.75 C 7.9375 6.894531 7.019531 6.800781 6.125 6.46875 C 5.238281 6.132812 4.488281 5.597656 3.875 4.859375 C 3.257812 4.109375 2.875 3.265625 2.71875 2.328125 C 2.5625 1.398438 2.644531 0.492188 2.96875 -0.390625 C 3.289062 -1.285156 3.828125 -2.046875 4.578125 -2.671875 Z M 5.5 -1.546875 C 4.945312 -1.085938 4.546875 -0.53125 4.296875 0.125 C 4.054688 0.78125 3.988281 1.453125 4.09375 2.140625 C 4.207031 2.835938 4.488281 3.460938 4.9375 4.015625 C 5.394531 4.566406 5.945312 4.957031 6.59375 5.1875 C 7.238281 5.425781 7.90625 5.484375 8.59375 5.359375 C 9.289062 5.234375 9.914062 4.941406 10.46875 4.484375 C 11.03125 4.015625 11.441406 3.453125 11.703125 2.796875 C 11.960938 2.140625 12.035156 1.460938 11.921875 0.765625 C 11.816406 0.078125 11.539062 -0.539062 11.09375 -1.09375 C 10.632812 -1.644531 10.070312 -2.035156 9.40625 -2.265625 C 8.75 -2.503906 8.070312 -2.554688 7.375 -2.421875 C 6.6875 -2.296875 6.0625 -2.003906 5.5 -1.546875 Z M 5.5 -1.546875 "/></g></g><g style="fill:#050a30;fill-opacity:1;"><g transform="translate(107.359415, 272.935885)"><path style="stroke:none" d="M 4.171875 -3.28125 C 4.816406 -3.988281 5.59375 -4.484375 6.5 -4.765625 C 7.414062 -5.046875 8.335938 -5.085938 9.265625 -4.890625 C 10.203125 -4.703125 11.03125 -4.285156 11.75 -3.640625 C 12.457031 -2.992188 12.945312 -2.210938 13.21875 -1.296875 C 13.5 -0.378906 13.539062 0.546875 13.34375 1.484375 C 13.144531 2.421875 12.722656 3.242188 12.078125 3.953125 C 11.421875 4.660156 10.632812 5.148438 9.71875 5.421875 C 8.8125 5.703125 7.894531 5.738281 6.96875 5.53125 C 6.039062 5.332031 5.222656 4.910156 4.515625 4.265625 C 3.796875 3.617188 3.296875 2.84375 3.015625 1.9375 C 2.734375 1.03125 2.691406 0.113281 2.890625 -0.8125 C 3.085938 -1.738281 3.515625 -2.5625 4.171875 -3.28125 Z M 5.21875 -2.296875 C 4.738281 -1.765625 4.421875 -1.15625 4.265625 -0.46875 C 4.117188 0.207031 4.144531 0.878906 4.34375 1.546875 C 4.550781 2.222656 4.921875 2.800781 5.453125 3.28125 C 5.984375 3.769531 6.585938 4.082031 7.265625 4.21875 C 7.941406 4.363281 8.609375 4.320312 9.265625 4.09375 C 9.929688 3.875 10.507812 3.5 11 2.96875 C 11.488281 2.425781 11.816406 1.8125 11.984375 1.125 C 12.148438 0.4375 12.128906 -0.242188 11.921875 -0.921875 C 11.722656 -1.597656 11.363281 -2.175781 10.84375 -2.65625 C 10.3125 -3.132812 9.703125 -3.441406 9.015625 -3.578125 C 8.328125 -3.710938 7.644531 -3.664062 6.96875 -3.4375 C 6.289062 -3.207031 5.707031 -2.828125 5.21875 -2.296875 Z M 5.21875 -2.296875 "/></g></g><g style="fill:#050a30;fill-opacity:1;"><g transform="translate(118.743631, 282.9814)"><path style="stroke:none" d="M 5.671875 -3.03125 L 5.984375 -3.171875 L 12.0625 -4.359375 L 13.546875 -3.3125 L 7.40625 -2.125 L 7.734375 5.421875 L 6.265625 4.390625 L 6.046875 -1.984375 L 4.84375 -1.78125 L 2.421875 1.703125 L 1.234375 0.875 L 7.265625 -7.71875 L 8.453125 -6.890625 L 6.015625 -3.421875 Z M 5.671875 -3.03125 "/></g></g><g style="fill:#050a30;fill-opacity:1;"><g transform="translate(129.091137, 289.94768)"><path style="stroke:none" d=""/></g></g><g style="fill:#050a30;fill-opacity:1;"><g transform="translate(135.327125, 293.490858)"><path style="stroke:none" d="M 9.921875 -4.875 C 9.671875 -5.226562 9.375 -5.546875 9.03125 -5.828125 C 8.695312 -6.117188 8.363281 -6.34375 8.03125 -6.5 C 7.507812 -6.75 7.046875 -6.828125 6.640625 -6.734375 C 6.234375 -6.648438 5.9375 -6.410156 5.75 -6.015625 C 5.5625 -5.617188 5.585938 -5.210938 5.828125 -4.796875 C 6.066406 -4.378906 6.457031 -3.890625 7 -3.328125 C 7.414062 -2.929688 7.742188 -2.550781 7.984375 -2.1875 C 8.222656 -1.832031 8.367188 -1.414062 8.421875 -0.9375 C 8.472656 -0.457031 8.367188 0.0546875 8.109375 0.609375 C 7.867188 1.117188 7.523438 1.519531 7.078125 1.8125 C 6.628906 2.101562 6.117188 2.253906 5.546875 2.265625 C 4.972656 2.285156 4.367188 2.148438 3.734375 1.859375 C 3.140625 1.578125 2.613281 1.21875 2.15625 0.78125 C 1.707031 0.34375 1.347656 -0.113281 1.078125 -0.59375 L 2.09375 -1.34375 C 2.3125 -0.945312 2.601562 -0.554688 2.96875 -0.171875 C 3.34375 0.210938 3.726562 0.5 4.125 0.6875 C 4.632812 0.925781 5.140625 1 5.640625 0.90625 C 6.148438 0.820312 6.523438 0.519531 6.765625 0 C 6.972656 -0.4375 6.976562 -0.859375 6.78125 -1.265625 C 6.582031 -1.671875 6.242188 -2.117188 5.765625 -2.609375 C 5.328125 -3.078125 4.976562 -3.488281 4.71875 -3.84375 C 4.457031 -4.195312 4.273438 -4.601562 4.171875 -5.0625 C 4.078125 -5.519531 4.148438 -6.003906 4.390625 -6.515625 C 4.734375 -7.253906 5.269531 -7.734375 6 -7.953125 C 6.738281 -8.171875 7.53125 -8.097656 8.375 -7.734375 C 9.40625 -7.253906 10.238281 -6.5625 10.875 -5.65625 Z M 9.921875 -4.875 "/></g></g><g style="fill:#050a30;fill-opacity:1;"><g transform="translate(145.442809, 298.056362)"><path style="stroke:none" d="M 10.71875 -7.40625 L 10.265625 -6.125 L 7.609375 -7.046875 L 4.625 1.59375 L 3.296875 1.140625 L 6.28125 -7.5 L 3.671875 -8.40625 L 4.125 -9.6875 Z M 10.71875 -7.40625 "/></g></g><g style="fill:#050a30;fill-opacity:1;"><g transform="translate(156.018239, 301.672612)"><path style="stroke:none" d="M 1.9375 -4.9375 C 2.144531 -5.863281 2.570312 -6.679688 3.21875 -7.390625 C 3.863281 -8.097656 4.632812 -8.601562 5.53125 -8.90625 C 6.4375 -9.21875 7.363281 -9.269531 8.3125 -9.0625 C 9.25 -8.863281 10.066406 -8.4375 10.765625 -7.78125 C 11.472656 -7.132812 11.972656 -6.351562 12.265625 -5.4375 C 12.566406 -4.53125 12.613281 -3.613281 12.40625 -2.6875 C 12.207031 -1.738281 11.785156 -0.914062 11.140625 -0.21875 C 10.503906 0.476562 9.734375 0.972656 8.828125 1.265625 C 7.921875 1.566406 7 1.617188 6.0625 1.421875 C 5.113281 1.210938 4.285156 0.789062 3.578125 0.15625 C 2.878906 -0.476562 2.378906 -1.242188 2.078125 -2.140625 C 1.785156 -3.046875 1.738281 -3.976562 1.9375 -4.9375 Z M 3.359375 -4.625 C 3.210938 -3.925781 3.242188 -3.242188 3.453125 -2.578125 C 3.660156 -1.910156 4.023438 -1.332031 4.546875 -0.84375 C 5.066406 -0.363281 5.671875 -0.0507812 6.359375 0.09375 C 7.066406 0.238281 7.742188 0.203125 8.390625 -0.015625 C 9.046875 -0.242188 9.609375 -0.617188 10.078125 -1.140625 C 10.546875 -1.671875 10.851562 -2.289062 11 -3 C 11.15625 -3.707031 11.128906 -4.398438 10.921875 -5.078125 C 10.710938 -5.753906 10.351562 -6.332031 9.84375 -6.8125 C 9.332031 -7.289062 8.726562 -7.601562 8.03125 -7.75 C 7.332031 -7.90625 6.648438 -7.863281 5.984375 -7.625 C 5.316406 -7.394531 4.75 -7.015625 4.28125 -6.484375 C 3.820312 -5.953125 3.515625 -5.332031 3.359375 -4.625 Z M 3.359375 -4.625 "/></g></g><g style="fill:#050a30;fill-opacity:1;"><g transform="translate(170.910686, 304.601294)"><path style="stroke:none" d="M 7.25 0.609375 L 5.125 -3.453125 C 5.050781 -3.453125 4.9375 -3.457031 4.78125 -3.46875 L 3.234375 -3.59375 L 2.90625 0.25 L 1.515625 0.125 L 2.40625 -10.34375 L 5.1875 -10.109375 C 5.90625 -10.046875 6.53125 -9.863281 7.0625 -9.5625 C 7.59375 -9.257812 8 -8.851562 8.28125 -8.34375 C 8.5625 -7.832031 8.671875 -7.234375 8.609375 -6.546875 C 8.554688 -5.898438 8.363281 -5.316406 8.03125 -4.796875 C 7.695312 -4.273438 7.226562 -3.898438 6.625 -3.671875 L 8.890625 0.75 Z M 4.859375 -4.828125 C 5.617188 -4.765625 6.179688 -4.921875 6.546875 -5.296875 C 6.910156 -5.671875 7.113281 -6.109375 7.15625 -6.609375 C 7.175781 -6.921875 7.128906 -7.226562 7.015625 -7.53125 C 6.910156 -7.84375 6.710938 -8.109375 6.421875 -8.328125 C 6.128906 -8.554688 5.753906 -8.6875 5.296875 -8.71875 L 3.671875 -8.859375 L 3.34375 -4.953125 Z M 4.859375 -4.828125 "/></g></g><g style="fill:#050a30;fill-opacity:1;"><g transform="translate(183.148112, 305.48099)"><path style="stroke:none" d="M 8.03125 -10.734375 L 8.0625 -9.375 L 2.65625 -9.21875 L 2.75 -6.03125 L 7.578125 -6.171875 L 7.625 -4.8125 L 2.796875 -4.671875 L 2.890625 -1.4375 L 8.5 -1.609375 L 8.53125 -0.25 L 1.515625 -0.046875 L 1.21875 -10.546875 Z M 8.03125 -10.734375 "/></g></g><g style="fill:#050a30;fill-opacity:1;"><g transform="translate(195.209708, 304.90977)"><path style="stroke:none" d=""/></g></g><g style="fill:#050a30;fill-opacity:1;"><g transform="translate(202.350632, 304.057498)"><path style="stroke:none" d="M 6 -12 L 6.28125 -10.671875 L 0.984375 -9.546875 L 1.640625 -6.421875 L 6.359375 -7.421875 L 6.640625 -6.09375 L 1.921875 -5.09375 L 2.578125 -1.921875 L 8.0625 -3.078125 L 8.34375 -1.75 L 1.484375 -0.3125 L -0.671875 -10.59375 Z M 6 -12 "/></g></g><g style="fill:#050a30;fill-opacity:1;"><g transform="translate(214.200696, 301.392316)"><path style="stroke:none" d="M 3.921875 -10.34375 C 3.503906 -10.414062 3.070312 -10.445312 2.625 -10.4375 C 2.1875 -10.425781 1.789062 -10.363281 1.4375 -10.25 C 0.882812 -10.070312 0.488281 -9.804688 0.25 -9.453125 C 0.0195312 -9.109375 -0.0234375 -8.726562 0.109375 -8.3125 C 0.242188 -7.894531 0.535156 -7.613281 0.984375 -7.46875 C 1.441406 -7.332031 2.054688 -7.25 2.828125 -7.21875 C 3.410156 -7.195312 3.910156 -7.132812 4.328125 -7.03125 C 4.753906 -6.9375 5.148438 -6.734375 5.515625 -6.421875 C 5.878906 -6.117188 6.15625 -5.675781 6.34375 -5.09375 C 6.519531 -4.5625 6.546875 -4.035156 6.421875 -3.515625 C 6.296875 -2.992188 6.023438 -2.523438 5.609375 -2.109375 C 5.203125 -1.703125 4.664062 -1.394531 4 -1.1875 C 3.375 -0.976562 2.742188 -0.878906 2.109375 -0.890625 C 1.484375 -0.910156 0.90625 -1 0.375 -1.15625 L 0.609375 -2.40625 C 1.035156 -2.269531 1.515625 -2.1875 2.046875 -2.15625 C 2.585938 -2.125 3.066406 -2.175781 3.484375 -2.3125 C 4.023438 -2.488281 4.445312 -2.78125 4.75 -3.1875 C 5.0625 -3.601562 5.128906 -4.082031 4.953125 -4.625 C 4.804688 -5.082031 4.519531 -5.390625 4.09375 -5.546875 C 3.664062 -5.710938 3.113281 -5.816406 2.4375 -5.859375 C 1.800781 -5.890625 1.265625 -5.945312 0.828125 -6.03125 C 0.390625 -6.113281 -0.0195312 -6.285156 -0.40625 -6.546875 C -0.789062 -6.804688 -1.070312 -7.207031 -1.25 -7.75 C -1.5 -8.53125 -1.425781 -9.253906 -1.03125 -9.921875 C -0.632812 -10.585938 -0.0078125 -11.070312 0.84375 -11.375 C 1.925781 -11.71875 3.007812 -11.773438 4.09375 -11.546875 Z M 3.921875 -10.34375 "/></g></g><g style="fill:#050a30;fill-opacity:1;"><g transform="translate(224.710865, 297.827518)"><path style="stroke:none" d="M 2.796875 -12.71875 L 3.34375 -11.484375 L 0.765625 -10.34375 L 4.46875 -1.984375 L 3.1875 -1.40625 L -0.515625 -9.765625 L -3.03125 -8.65625 L -3.578125 -9.890625 Z M 2.796875 -12.71875 "/></g></g><g style="fill:#050a30;fill-opacity:1;"><g transform="translate(234.866706, 293.234567)"><path style="stroke:none" d="M -4.015625 -9.8125 L -1.546875 -11.28125 C -0.421875 -11.9375 0.640625 -12.253906 1.640625 -12.234375 C 2.640625 -12.222656 3.515625 -11.96875 4.265625 -11.46875 C 5.023438 -10.96875 5.640625 -10.328125 6.109375 -9.546875 C 6.617188 -8.660156 6.863281 -7.765625 6.84375 -6.859375 C 6.832031 -5.953125 6.585938 -5.113281 6.109375 -4.34375 C 5.640625 -3.570312 5.007812 -2.953125 4.21875 -2.484375 L 1.3125 -0.765625 Z M 3.28125 -3.515625 C 3.957031 -3.910156 4.476562 -4.394531 4.84375 -4.96875 C 5.21875 -5.539062 5.40625 -6.160156 5.40625 -6.828125 C 5.414062 -7.503906 5.21875 -8.191406 4.8125 -8.890625 C 4.382812 -9.597656 3.863281 -10.113281 3.25 -10.4375 C 2.644531 -10.769531 2.007812 -10.914062 1.34375 -10.875 C 0.675781 -10.832031 0.046875 -10.632812 -0.546875 -10.28125 L -2.125 -9.359375 L 1.828125 -2.65625 Z M 3.28125 -3.515625 "/></g></g><g style="fill:#050a30;fill-opacity:1;"><g transform="translate(246.411571, 286.11115)"><path style="stroke:none" d=""/></g></g><g style="fill:#050a30;fill-opacity:1;"><g transform="translate(252.184677, 281.873435)"><path style="stroke:none" d="M 4.625 -5.78125 L 5.515625 -4.75 L 0.59375 -0.515625 L 0.640625 -1.203125 C 0.753906 -2.585938 0.816406 -3.6875 0.828125 -4.5 C 0.847656 -5.320312 0.796875 -6.09375 0.671875 -6.8125 C 0.554688 -7.53125 0.316406 -8.097656 -0.046875 -8.515625 C -0.429688 -8.972656 -0.859375 -9.203125 -1.328125 -9.203125 C -1.796875 -9.203125 -2.222656 -9.039062 -2.609375 -8.71875 C -2.898438 -8.457031 -3.09375 -8.179688 -3.1875 -7.890625 C -3.289062 -7.597656 -3.304688 -7.3125 -3.234375 -7.03125 C -3.160156 -6.757812 -3.039062 -6.53125 -2.875 -6.34375 C -2.476562 -5.875 -2.003906 -5.617188 -1.453125 -5.578125 L -1.59375 -4.421875 C -1.957031 -4.359375 -2.363281 -4.429688 -2.8125 -4.640625 C -3.257812 -4.859375 -3.617188 -5.125 -3.890625 -5.4375 C -4.242188 -5.84375 -4.46875 -6.304688 -4.5625 -6.828125 C -4.664062 -7.347656 -4.613281 -7.875 -4.40625 -8.40625 C -4.195312 -8.945312 -3.828125 -9.445312 -3.296875 -9.90625 C -2.859375 -10.28125 -2.375 -10.515625 -1.84375 -10.609375 C -1.3125 -10.703125 -0.800781 -10.65625 -0.3125 -10.46875 C 0.175781 -10.289062 0.601562 -9.992188 0.96875 -9.578125 C 1.320312 -9.148438 1.578125 -8.640625 1.734375 -8.046875 C 1.898438 -7.460938 1.992188 -6.859375 2.015625 -6.234375 C 2.046875 -5.617188 2.054688 -4.832031 2.046875 -3.875 L 2.03125 -3.546875 Z M 4.625 -5.78125 "/></g></g><g style="fill:#050a30;fill-opacity:1;"><g transform="translate(260.125016, 274.905251)"><path style="stroke:none" d="M 3.140625 -3.265625 C 2.609375 -2.691406 1.988281 -2.316406 1.28125 -2.140625 C 0.582031 -1.960938 -0.144531 -2.003906 -0.90625 -2.265625 C -1.675781 -2.535156 -2.421875 -3.007812 -3.140625 -3.6875 C -4.285156 -4.769531 -4.914062 -5.851562 -5.03125 -6.9375 C -5.144531 -8.019531 -4.769531 -9.019531 -3.90625 -9.9375 C -3.363281 -10.5 -2.738281 -10.863281 -2.03125 -11.03125 C -1.332031 -11.195312 -0.601562 -11.148438 0.15625 -10.890625 C 0.914062 -10.640625 1.648438 -10.179688 2.359375 -9.515625 C 3.085938 -8.828125 3.601562 -8.101562 3.90625 -7.34375 C 4.207031 -6.59375 4.289062 -5.863281 4.15625 -5.15625 C 4.03125 -4.445312 3.691406 -3.816406 3.140625 -3.265625 Z M 2.15625 -4.1875 C 2.71875 -4.78125 2.914062 -5.453125 2.75 -6.203125 C 2.59375 -6.960938 2.125 -7.71875 1.34375 -8.46875 C 0.570312 -9.1875 -0.1875 -9.597656 -0.9375 -9.703125 C -1.695312 -9.816406 -2.359375 -9.578125 -2.921875 -8.984375 C -3.484375 -8.390625 -3.6875 -7.71875 -3.53125 -6.96875 C -3.382812 -6.21875 -2.921875 -5.476562 -2.140625 -4.75 C -1.359375 -4.007812 -0.585938 -3.582031 0.171875 -3.46875 C 0.929688 -3.351562 1.59375 -3.59375 2.15625 -4.1875 Z M 2.15625 -4.1875 "/></g></g><g style="fill:#050a30;fill-opacity:1;"><g transform="translate(268.050755, 266.288825)"><path style="stroke:none" d="M 3.359375 -6.609375 L 4.4375 -5.78125 L 0.46875 -0.625 L 0.375 -1.296875 C 0.207031 -2.679688 0.0507812 -3.773438 -0.09375 -4.578125 C -0.25 -5.378906 -0.457031 -6.117188 -0.71875 -6.796875 C -0.988281 -7.472656 -1.347656 -7.984375 -1.796875 -8.328125 C -2.265625 -8.691406 -2.726562 -8.828125 -3.1875 -8.734375 C -3.644531 -8.648438 -4.023438 -8.410156 -4.328125 -8.015625 C -4.566406 -7.703125 -4.703125 -7.390625 -4.734375 -7.078125 C -4.765625 -6.765625 -4.71875 -6.476562 -4.59375 -6.21875 C -4.476562 -5.96875 -4.320312 -5.769531 -4.125 -5.625 C -3.632812 -5.25 -3.113281 -5.097656 -2.5625 -5.171875 L -2.46875 -4 C -2.8125 -3.851562 -3.222656 -3.84375 -3.703125 -3.96875 C -4.191406 -4.09375 -4.597656 -4.273438 -4.921875 -4.515625 C -5.347656 -4.847656 -5.660156 -5.257812 -5.859375 -5.75 C -6.066406 -6.25 -6.125 -6.78125 -6.03125 -7.34375 C -5.945312 -7.914062 -5.691406 -8.476562 -5.265625 -9.03125 C -4.910156 -9.488281 -4.484375 -9.816406 -3.984375 -10.015625 C -3.484375 -10.222656 -2.96875 -10.28125 -2.4375 -10.1875 C -1.914062 -10.101562 -1.4375 -9.894531 -1 -9.5625 C -0.5625 -9.226562 -0.207031 -8.785156 0.0625 -8.234375 C 0.34375 -7.691406 0.554688 -7.117188 0.703125 -6.515625 C 0.859375 -5.921875 1.023438 -5.15625 1.203125 -4.21875 L 1.265625 -3.890625 Z M 3.359375 -6.609375 "/></g></g><g style="fill:#050a30;fill-opacity:1;"><g transform="translate(274.357744, 257.847099)"><path style="stroke:none" d="M -3.296875 -6.46875 C -2.972656 -7 -2.570312 -7.378906 -2.09375 -7.609375 C -1.613281 -7.847656 -1.113281 -7.941406 -0.59375 -7.890625 C -0.0703125 -7.835938 0.425781 -7.660156 0.90625 -7.359375 C 1.425781 -7.035156 1.820312 -6.625 2.09375 -6.125 C 2.363281 -5.632812 2.488281 -5.109375 2.46875 -4.546875 C 2.457031 -3.992188 2.296875 -3.460938 1.984375 -2.953125 C 1.710938 -2.535156 1.375 -2.171875 0.96875 -1.859375 C 0.5625 -1.554688 0.160156 -1.359375 -0.234375 -1.265625 L -0.765625 -2.484375 C -0.484375 -2.535156 -0.203125 -2.660156 0.078125 -2.859375 C 0.367188 -3.054688 0.601562 -3.296875 0.78125 -3.578125 C 1.0625 -4.023438 1.144531 -4.484375 1.03125 -4.953125 C 0.925781 -5.429688 0.644531 -5.8125 0.1875 -6.09375 C -0.3125 -6.414062 -0.800781 -6.53125 -1.28125 -6.4375 C -1.757812 -6.351562 -2.160156 -6.054688 -2.484375 -5.546875 C -2.648438 -5.285156 -2.769531 -5.003906 -2.84375 -4.703125 C -2.925781 -4.398438 -2.976562 -4.066406 -3 -3.703125 L -3 -3.6875 L -7.28125 -6.359375 L -4.859375 -10.25 L -3.71875 -9.53125 L -5.484375 -6.6875 L -3.71875 -5.59375 C -3.625 -5.882812 -3.484375 -6.175781 -3.296875 -6.46875 Z M -3.296875 -6.46875 "/></g></g><g clip-rule="nonzero" clip-path="url(#61477b3308)"><path style=" stroke:none;fill-rule:nonzero;fill:#050a30;fill-opacity:1;" d="M 315.03125 187.097656 L 311.046875 187.097656 C 304.226562 185.621094 302.707031 184.101562 301.234375 177.269531 L 301.234375 173.441406 L 300.726562 173.441406 L 300.726562 177.308594 C 299.253906 184.105469 297.730469 185.625 290.921875 187.097656 L 288.015625 187.097656 L 288.015625 187.601562 L 290.921875 187.601562 C 297.730469 189.078125 299.253906 190.59375 300.726562 197.390625 L 300.726562 201.191406 L 301.234375 201.191406 L 301.234375 197.433594 C 302.707031 190.601562 304.226562 189.078125 311.046875 187.601562 L 315.03125 187.601562 Z M 315.03125 187.097656 "/></g></g></svg>